<svg xmlns="http://www.w3.org/2000/svg" viewBox="0 0 64 64">
<style>.logo-body{fill:#7DCFEA}.logo-stripe{fill:#F26522}.logo-trim{fill:#07090C}.logo-glass{fill:#3D5673}.logo-wheel{fill:#0D1B2A}.logo-rim{fill:#C9D3DE}.logo-hub{fill:#0D1B2A}</style>
<rect width="64" height="64" rx="14" fill="#1E3A5F"/>
<g transform="translate(4 21) scale(0.7)">
    <defs>
        <clipPath id="logo-body-clip"><path d="M77 18.85C76.96 18.62 76.94 17.83 76.77 17.47C76.6 17.1 76.35 16.84 76 16.65C75.66 16.46 75.02 16.46 74.7 16.33C74.38 16.19 74.23 16.15 74.09 15.84C73.95 15.53 73.93 14.96 73.86 14.46C73.78 13.96 73.74 13.24 73.63 12.83C73.51 12.43 73.43 12.24 73.17 12.02C72.9 11.8 72.78 11.71 72.02 11.53C71.25 11.36 69.91 11.12 68.56 10.96C67.22 10.8 65.5 10.66 63.96 10.56C62.43 10.45 60.64 10.41 59.36 10.31C58.08 10.22 57.19 10.11 56.3 9.99C55.4 9.86 54.58 9.69 53.99 9.58C53.41 9.47 52.97 9.38 52.77 9.34C52.26 8.96 50.72 7.82 49.7 7.06C48.68 6.3 47.48 5.41 46.63 4.78C45.79 4.16 45.23 3.7 44.64 3.32C44.05 2.94 43.72 2.7 43.11 2.51C42.49 2.32 41.83 2.25 40.96 2.18C40.09 2.12 38.91 2.1 37.89 2.1C36.87 2.1 35.85 2.13 34.82 2.18C33.8 2.24 32.72 2.32 31.76 2.43C30.8 2.54 29.9 2.63 29.07 2.83C28.24 3.04 27.5 3.34 26.77 3.65C26.04 3.96 25.47 4.32 24.7 4.7C23.93 5.08 23.04 5.52 22.17 5.92C21.3 6.33 20.19 6.84 19.49 7.14C18.78 7.44 18.41 7.53 17.95 7.71C17.49 7.89 17.34 8.05 16.73 8.2C16.11 8.35 15.29 8.5 14.27 8.61C13.25 8.71 11.61 8.79 10.59 8.85C9.57 8.9 8.73 8.97 8.14 8.93C7.55 8.89 7.5 8.69 7.06 8.61C6.63 8.52 5.99 8.48 5.53 8.44C5.07 8.4 4.58 8.33 4.3 8.36C4.02 8.39 3.92 8.56 3.84 8.61C3.88 8.71 3.89 9.07 4.07 9.26C4.25 9.44 4.52 9.58 4.92 9.74C5.31 9.91 5.91 10.1 6.45 10.23C6.99 10.37 7.66 10.45 8.14 10.56C8.61 10.66 8.99 10.76 9.29 10.88C9.58 11 9.86 11.14 9.9 11.29C9.94 11.44 9.74 11.6 9.52 11.78C9.3 11.95 8.94 12.13 8.6 12.34C8.25 12.56 7.78 12.83 7.45 13.08C7.12 13.32 6.87 13.54 6.6 13.81C6.34 14.08 6.05 14.39 5.84 14.7C5.62 15.01 5.47 15.37 5.3 15.68C5.13 15.99 5.08 16.29 4.84 16.57C4.6 16.86 4.15 17.05 3.84 17.38C3.54 17.72 3.12 18.16 3 18.6C2.88 19.05 3.01 19.66 3.15 20.07C3.29 20.47 3.45 20.76 3.84 21.04C4.24 21.33 4.84 21.61 5.53 21.77C6.22 21.94 6.94 21.95 7.98 22.02C9.03 22.08 10.62 22.14 11.82 22.18C13.02 22.22 14.63 22.25 15.19 22.26A6.29 6.67 0 1 1 27.11 22.26L56.76 22.5A6.29 6.67 0 1 1 68.44 22.5L68.41 22.59C69.08 22.59 71.22 22.61 72.4 22.59C73.57 22.56 74.79 22.6 75.47 22.42C76.14 22.25 76.22 21.91 76.46 21.53C76.71 21.15 76.83 20.59 76.92 20.15C77.01 19.7 76.99 19.06 77 18.85Z"/></clipPath>
    </defs>
    <path class="logo-body" d="M77 18.85C76.96 18.62 76.94 17.83 76.77 17.47C76.6 17.1 76.35 16.84 76 16.65C75.66 16.46 75.02 16.46 74.7 16.33C74.38 16.19 74.23 16.15 74.09 15.84C73.95 15.53 73.93 14.96 73.86 14.46C73.78 13.96 73.74 13.24 73.63 12.83C73.51 12.43 73.43 12.24 73.17 12.02C72.9 11.8 72.78 11.71 72.02 11.53C71.25 11.36 69.91 11.12 68.56 10.96C67.22 10.8 65.5 10.66 63.96 10.56C62.43 10.45 60.64 10.41 59.36 10.31C58.08 10.22 57.19 10.11 56.3 9.99C55.4 9.86 54.58 9.69 53.99 9.58C53.41 9.47 52.97 9.38 52.77 9.34C52.26 8.96 50.72 7.82 49.7 7.06C48.68 6.3 47.48 5.41 46.63 4.78C45.79 4.16 45.23 3.7 44.64 3.32C44.05 2.94 43.72 2.7 43.11 2.51C42.49 2.32 41.83 2.25 40.96 2.18C40.09 2.12 38.91 2.1 37.89 2.1C36.87 2.1 35.85 2.13 34.82 2.18C33.8 2.24 32.72 2.32 31.76 2.43C30.8 2.54 29.9 2.63 29.07 2.83C28.24 3.04 27.5 3.34 26.77 3.65C26.04 3.96 25.47 4.32 24.7 4.7C23.93 5.08 23.04 5.52 22.17 5.92C21.3 6.33 20.19 6.84 19.49 7.14C18.78 7.44 18.41 7.53 17.95 7.71C17.49 7.89 17.34 8.05 16.73 8.2C16.11 8.35 15.29 8.5 14.27 8.61C13.25 8.71 11.61 8.79 10.59 8.85C9.57 8.9 8.73 8.97 8.14 8.93C7.55 8.89 7.5 8.69 7.06 8.61C6.63 8.52 5.99 8.48 5.53 8.44C5.07 8.4 4.58 8.33 4.3 8.36C4.02 8.39 3.92 8.56 3.84 8.61C3.88 8.71 3.89 9.07 4.07 9.26C4.25 9.44 4.52 9.58 4.92 9.74C5.31 9.91 5.91 10.1 6.45 10.23C6.99 10.37 7.66 10.45 8.14 10.56C8.61 10.66 8.99 10.76 9.29 10.88C9.58 11 9.86 11.14 9.9 11.29C9.94 11.44 9.74 11.6 9.52 11.78C9.3 11.95 8.94 12.13 8.6 12.34C8.25 12.56 7.78 12.83 7.45 13.08C7.12 13.32 6.87 13.54 6.6 13.81C6.34 14.08 6.05 14.39 5.84 14.7C5.62 15.01 5.47 15.37 5.3 15.68C5.13 15.99 5.08 16.29 4.84 16.57C4.6 16.86 4.15 17.05 3.84 17.38C3.54 17.72 3.12 18.16 3 18.6C2.88 19.05 3.01 19.66 3.15 20.07C3.29 20.47 3.45 20.76 3.84 21.04C4.24 21.33 4.84 21.61 5.53 21.77C6.22 21.94 6.94 21.95 7.98 22.02C9.03 22.08 10.62 22.14 11.82 22.18C13.02 22.22 14.63 22.25 15.19 22.26A6.29 6.67 0 1 1 27.11 22.26L56.76 22.5A6.29 6.67 0 1 1 68.44 22.5L68.41 22.59C69.08 22.59 71.22 22.61 72.4 22.59C73.57 22.56 74.79 22.6 75.47 22.42C76.14 22.25 76.22 21.91 76.46 21.53C76.71 21.15 76.83 20.59 76.92 20.15C77.01 19.7 76.99 19.06 77 18.85Z"/>
    <path class="logo-stripe" clip-path="url(#logo-body-clip)" d="M0 15.68h80v1.06H0z"/>
    <path class="logo-trim" d="M47.55 9.42C47.35 9.12 46.79 8.28 46.33 7.63C45.87 6.98 45.3 6.11 44.79 5.52C44.28 4.92 43.87 4.41 43.26 4.05C42.65 3.7 42.07 3.54 41.11 3.4C40.15 3.27 38.81 3.24 37.51 3.24C36.2 3.24 34.63 3.28 33.29 3.4C31.95 3.52 30.61 3.7 29.46 3.97C28.31 4.24 27.33 4.61 26.39 5.03C25.44 5.45 24.55 6 23.78 6.49C23.01 6.98 22.32 7.53 21.79 7.95C21.25 8.37 20.69 8.75 20.56 9.01C20.43 9.27 20.94 9.42 21.02 9.5L33.29 9.58Z"/>
    <path class="logo-glass" d="M42.03 9.09C41.97 8.77 41.79 7.74 41.65 7.14C41.51 6.55 41.39 5.96 41.19 5.52C40.98 5.07 40.84 4.72 40.42 4.46C40 4.2 39.4 4.07 38.66 3.97C37.92 3.88 36.93 3.89 35.97 3.89C35.02 3.89 33.97 3.88 32.91 3.97C31.85 4.07 30.62 4.22 29.61 4.46C28.6 4.7 27.69 5.06 26.85 5.43C26.01 5.81 25.21 6.3 24.55 6.74C23.88 7.17 23.3 7.64 22.86 8.04C22.43 8.43 22.09 8.92 21.94 9.09Z"/>
    <path class="logo-trim" d="M33.29 3.57L30.53 3.89L30.84 9.34L34.21 9.34ZM7.37 8.77C7.06 8.72 6.04 8.55 5.53 8.49C5.02 8.43 4.58 8.39 4.3 8.41C4.02 8.43 3.88 8.47 3.84 8.61C3.81 8.74 4.04 9.11 4.07 9.21C4.12 9.17 4.14 9.05 4.38 8.97C4.62 8.89 5.03 8.74 5.53 8.74C6.03 8.73 7.06 8.88 7.37 8.91Z"/>
    <circle class="logo-wheel" cx="62.58" cy="20.07" r="5.6"/>
    <circle class="logo-rim" cx="62.58" cy="20.07" r="3.47"/>
    <circle class="logo-hub" cx="62.58" cy="20.07" r="1.23"/>
    <circle class="logo-wheel" cx="21.17" cy="20.07" r="5.6"/>
    <circle class="logo-rim" cx="21.17" cy="20.07" r="3.47"/>
    <circle class="logo-hub" cx="21.17" cy="20.07" r="1.23"/>
</g>
</svg>
